<?xml version="1.0" encoding="utf-8"?>
<!-- Generator: Adobe Illustrator 27.5.0, SVG Export Plug-In . SVG Version: 6.00 Build 0)  -->
<svg version="1.1" xmlns="http://www.w3.org/2000/svg" xmlns:xlink="http://www.w3.org/1999/xlink" x="0px" y="0px"
	 viewBox="0 0 500 500" style="enable-background:new 0 0 500 500;" xml:space="preserve">
<g id="Background_Simple">
	<g id="background-simple--inject-11_1_">
		<path style="fill:#C6FF00;" d="M386.331,86.063c0,0-46.514-37.99-107.01-21.172c-60.496,16.818-85.829,68.983-120.514,104.819
			c-18.171,18.76-45.013,25.673-66.599,40.116c-69.038,46.182-58.803,150.043-5.577,189.167
			c51.441,37.811,119.881,32.501,177.889,15.044c106.064-31.918,233.794-129.302,178.645-254.02
			C430.493,131.362,410.568,105.858,386.331,86.063z"/>
		<path style="opacity:0.7;fill:#FFFFFF;" d="M386.331,86.063c0,0-46.514-37.99-107.01-21.172
			c-60.496,16.818-85.829,68.983-120.514,104.819c-18.171,18.76-45.013,25.673-66.599,40.116
			c-69.038,46.182-58.803,150.043-5.577,189.167c51.441,37.811,119.881,32.501,177.889,15.044
			c106.064-31.918,233.794-129.302,178.645-254.02C430.493,131.362,410.568,105.858,386.331,86.063z"/>
	</g>
</g>
<g id="Shape">
	<g>
		<ellipse style="fill:#C6FF00;" cx="250" cy="432.314" rx="211.26" ry="16.83"/>
		<ellipse style="opacity:0.5;fill:#FFFFFF;" cx="250" cy="432.314" rx="211.26" ry="16.83"/>
	</g>
</g>
<g id="Status">
	<g>
		<g>
			<path style="fill:#263238;" d="M419.341,212.375H200.774c-4.746,0-8.593-3.847-8.593-8.593V89.857
				c0-4.746,3.847-8.593,8.594-8.593h218.568c4.746,0,8.594,3.847,8.594,8.593v113.925
				C427.935,208.528,424.087,212.375,419.341,212.375z"/>
			<path style="fill:#FFFFFF;stroke:#263238;stroke-miterlimit:10;" d="M426.32,217.279H207.752c-4.746,0-8.593-3.847-8.593-8.593
				V94.761c0-4.746,3.848-8.593,8.594-8.593H426.32c4.746,0,8.594,3.848,8.594,8.593v113.925
				C434.913,213.431,431.066,217.279,426.32,217.279z"/>
			<line style="fill:none;stroke:#263238;stroke-miterlimit:10;" x1="221.21" y1="179.156" x2="413.001" y2="179.156"/>
			<g>
				<path style="fill:#C6FF00;stroke:#263238;stroke-miterlimit:10;" d="M227.445,102.118c0,4.148-3.362,7.51-7.51,7.51
					c-4.148,0-7.51-3.362-7.51-7.51c0-4.148,3.362-7.51,7.51-7.51C224.083,94.607,227.445,97.97,227.445,102.118z"/>
				<line style="fill:#FFFFFF;stroke:#263238;stroke-miterlimit:10;" x1="214.974" y1="96.49" x2="224.973" y2="107.675"/>
				<line style="fill:#FFFFFF;stroke:#263238;stroke-miterlimit:10;" x1="225.654" y1="96.593" x2="215.441" y2="107.584"/>
			</g>
			<g>
				<path style="fill:#C6FF00;stroke:#263238;stroke-miterlimit:10;" d="M397.519,206.288h-39.322c-4.654,0-8.427-3.773-8.427-8.427
					v0c0-4.654,3.773-8.427,8.427-8.427h39.322c4.654,0,8.427,3.773,8.427,8.427l0,0
					C405.946,202.515,402.173,206.288,397.519,206.288z"/>
				<g>
					<path style="fill:#263238;" d="M358.604,198.154v-3.522h0.885v3.487c0,1.372,0.629,1.991,1.744,1.991s1.752-0.62,1.752-1.991
						v-3.487h0.858v3.522c0,1.797-0.982,2.744-2.619,2.744C359.596,200.898,358.604,199.951,358.604,198.154z"/>
					<path style="fill:#263238;" d="M371.541,196.792c0,1.345-0.974,2.16-2.584,2.16h-1.531v1.876h-0.885v-6.195h2.416
						C370.567,194.632,371.541,195.446,371.541,196.792z M370.656,196.792c0-0.885-0.594-1.39-1.727-1.39h-1.504v2.779h1.504
						C370.063,198.181,370.656,197.677,370.656,196.792z"/>
					<path style="fill:#263238;" d="M373.726,194.632h2.61c1.991,0,3.346,1.257,3.346,3.098c0,1.841-1.354,3.098-3.346,3.098h-2.61
						V194.632z M376.283,200.057c1.53,0,2.513-0.938,2.513-2.328c0-1.389-0.982-2.328-2.513-2.328h-1.673v4.655H376.283z"/>
					<path style="fill:#263238;" d="M385.776,199.278h-3.292l-0.682,1.549h-0.911l2.806-6.195h0.876l2.815,6.195h-0.93
						L385.776,199.278z M385.467,198.57l-1.336-3.036l-1.337,3.036H385.467z"/>
					<path style="fill:#263238;" d="M390.111,195.402h-2.124v-0.77h5.124v0.77h-2.124v5.425h-0.876V195.402z"/>
					<path style="fill:#263238;" d="M399.455,200.057v0.77h-4.495v-6.195h4.371v0.77h-3.486v1.903h3.106v0.752h-3.106v2H399.455z"/>
				</g>
			</g>
			<g style="opacity:0.26;">
				<path style="fill:#263238;" d="M282.349,138.328l-2.807,8.395h-1.259l-2.291-6.704l-2.291,6.704h-1.283l-2.807-8.395h1.235
					l2.267,6.824l2.363-6.824h1.103l2.314,6.86l2.315-6.86H282.349z"/>
				<path style="fill:#263238;" d="M291.063,143.065v3.658h-1.151v-3.526c0-1.248-0.624-1.859-1.715-1.859
					c-1.224,0-2.015,0.732-2.015,2.111v3.274h-1.151v-8.899h1.151v3.442c0.479-0.612,1.271-0.96,2.242-0.96
					C289.972,140.307,291.063,141.194,291.063,143.065z"/>
				<path style="fill:#263238;" d="M299.44,142.885v3.838h-1.092v-0.839c-0.384,0.576-1.091,0.911-2.087,0.911
					c-1.439,0-2.351-0.768-2.351-1.871c0-1.02,0.66-1.859,2.555-1.859h1.823v-0.227c0-0.972-0.564-1.535-1.703-1.535
					c-0.756,0-1.523,0.264-2.015,0.684l-0.48-0.864c0.66-0.527,1.607-0.816,2.627-0.816
					C298.457,140.307,299.44,141.146,299.44,142.885z M298.289,144.78v-0.888h-1.775c-1.14,0-1.463,0.444-1.463,0.983
					c0,0.636,0.527,1.032,1.403,1.032C297.317,145.908,298.001,145.512,298.289,144.78z"/>
				<path style="fill:#263238;" d="M306.352,146.352c-0.348,0.3-0.875,0.443-1.391,0.443c-1.283,0-2.015-0.708-2.015-1.991v-3.49
					h-1.08v-0.947h1.08v-1.391h1.151v1.391h1.822v0.947h-1.822v3.442c0,0.684,0.359,1.067,0.995,1.067
					c0.336,0,0.659-0.108,0.899-0.3L306.352,146.352z"/>
				<path style="fill:#263238;" d="M318.412,142.885v3.838h-1.092v-0.839c-0.384,0.576-1.091,0.911-2.087,0.911
					c-1.44,0-2.351-0.768-2.351-1.871c0-1.02,0.66-1.859,2.555-1.859h1.823v-0.227c0-0.972-0.564-1.535-1.703-1.535
					c-0.756,0-1.523,0.264-2.015,0.684l-0.48-0.864c0.66-0.527,1.607-0.816,2.627-0.816
					C317.429,140.307,318.412,141.146,318.412,142.885z M317.261,144.78v-0.888h-1.775c-1.14,0-1.463,0.444-1.463,0.983
					c0,0.636,0.527,1.032,1.403,1.032C316.289,145.908,316.973,145.512,317.261,144.78z"/>
				<path style="fill:#263238;" d="M325.169,140.307v1.115c-0.096-0.012-0.18-0.012-0.264-0.012c-1.235,0-2.003,0.755-2.003,2.147
					v3.166h-1.151v-6.356h1.102v1.067C323.262,140.69,324.054,140.307,325.169,140.307z"/>
				<path style="fill:#263238;" d="M333.447,143.929h-5.157c0.144,1.115,1.043,1.859,2.303,1.859c0.743,0,1.367-0.252,1.835-0.768
					l0.636,0.744c-0.576,0.671-1.451,1.031-2.507,1.031c-2.051,0-3.418-1.355-3.418-3.25c0-1.883,1.355-3.238,3.19-3.238
					c1.835,0,3.142,1.319,3.142,3.275C333.471,143.677,333.459,143.821,333.447,143.929z M328.29,143.101h4.077
					c-0.119-1.067-0.923-1.823-2.038-1.823C329.226,141.278,328.41,142.022,328.29,143.101z"/>
				<path style="fill:#263238;" d="M346.323,140.367l-3.082,6.992c-0.564,1.343-1.295,1.763-2.267,1.763
					c-0.611,0-1.235-0.204-1.631-0.587l0.491-0.864c0.313,0.3,0.708,0.468,1.14,0.468c0.552,0,0.899-0.251,1.211-0.983l0.204-0.444
					l-2.807-6.344h1.2l2.219,5.085l2.194-5.085H346.323z"/>
				<path style="fill:#263238;" d="M347.839,143.545c0-1.895,1.403-3.238,3.309-3.238c1.907,0,3.299,1.343,3.299,3.238
					c0,1.895-1.392,3.25-3.299,3.25C349.242,146.795,347.839,145.44,347.839,143.545z M353.284,143.545
					c0-1.355-0.912-2.231-2.136-2.231c-1.223,0-2.146,0.876-2.146,2.231c0,1.355,0.924,2.243,2.146,2.243
					C352.372,145.788,353.284,144.9,353.284,143.545z"/>
				<path style="fill:#263238;" d="M363.171,140.367v6.356h-1.092v-0.959c-0.468,0.66-1.26,1.031-2.159,1.031
					c-1.643,0-2.734-0.899-2.734-2.771v-3.658h1.151v3.526c0,1.248,0.624,1.871,1.715,1.871c1.2,0,1.968-0.744,1.968-2.111v-3.286
					H363.171z"/>
				<path style="fill:#263238;" d="M261.353,153.771h-2.878v-1.044h6.944v1.044h-2.879v7.352h-1.188V153.771z"/>
				<path style="fill:#263238;" d="M273.795,157.465v3.658h-1.151v-3.526c0-1.248-0.623-1.859-1.715-1.859
					c-1.224,0-2.015,0.732-2.015,2.111v3.274h-1.151v-8.899h1.151v3.442c0.479-0.612,1.271-0.96,2.242-0.96
					C272.704,154.706,273.795,155.594,273.795,157.465z"/>
				<path style="fill:#263238;" d="M276.931,152.8c0-0.42,0.336-0.756,0.779-0.756c0.444,0,0.78,0.324,0.78,0.732
					c0,0.432-0.324,0.768-0.78,0.768C277.267,153.544,276.931,153.219,276.931,152.8z M277.135,154.767h1.151v6.356h-1.151V154.767z
					"/>
				<path style="fill:#263238;" d="M287.715,157.465v3.658h-1.151v-3.526c0-1.248-0.624-1.859-1.715-1.859
					c-1.224,0-2.015,0.732-2.015,2.111v3.274h-1.151v-6.356h1.103v0.96c0.468-0.648,1.284-1.02,2.291-1.02
					C286.623,154.706,287.715,155.594,287.715,157.465z"/>
				<path style="fill:#263238;" d="M293.525,158.161l-1.319,1.223v1.739h-1.151v-8.899h1.151v5.708l3.466-3.166h1.392l-2.675,2.626
					l2.938,3.73h-1.416L293.525,158.161z"/>
				<path style="fill:#263238;" d="M299.358,152.8c0-0.42,0.336-0.756,0.779-0.756c0.443,0,0.779,0.324,0.779,0.732
					c0,0.432-0.323,0.768-0.779,0.768C299.694,153.544,299.358,153.219,299.358,152.8z M299.563,154.767h1.151v6.356h-1.151V154.767
					z"/>
				<path style="fill:#263238;" d="M310.143,157.465v3.658h-1.151v-3.526c0-1.248-0.624-1.859-1.715-1.859
					c-1.224,0-2.015,0.732-2.015,2.111v3.274h-1.151v-6.356h1.103v0.96c0.468-0.648,1.284-1.02,2.291-1.02
					C309.051,154.706,310.143,155.594,310.143,157.465z"/>
				<path style="fill:#263238;" d="M319.599,154.767v5.493c0,2.243-1.14,3.263-3.298,3.263c-1.163,0-2.339-0.324-3.034-0.948
					l0.552-0.888c0.587,0.504,1.511,0.828,2.446,0.828c1.499,0,2.183-0.695,2.183-2.135v-0.504c-0.552,0.66-1.379,0.984-2.291,0.984
					c-1.835,0-3.226-1.248-3.226-3.083c0-1.835,1.391-3.07,3.226-3.07c0.948,0,1.812,0.348,2.352,1.044v-0.983H319.599z
					 M318.472,157.777c0-1.235-0.912-2.063-2.183-2.063c-1.284,0-2.195,0.828-2.195,2.063c0,1.223,0.911,2.075,2.195,2.075
					C317.56,159.852,318.472,159,318.472,157.777z"/>
				<path style="fill:#263238;" d="M332.464,157.285v3.838h-1.092v-0.839c-0.384,0.576-1.091,0.911-2.087,0.911
					c-1.439,0-2.351-0.768-2.351-1.871c0-1.02,0.66-1.859,2.555-1.859h1.823v-0.227c0-0.972-0.564-1.535-1.703-1.535
					c-0.756,0-1.523,0.264-2.015,0.684l-0.48-0.864c0.66-0.527,1.607-0.816,2.627-0.816
					C331.48,154.706,332.464,155.546,332.464,157.285z M331.313,159.18v-0.888h-1.775c-1.14,0-1.463,0.444-1.463,0.983
					c0,0.636,0.527,1.032,1.403,1.032C330.341,160.308,331.024,159.912,331.313,159.18z"/>
				<path style="fill:#263238;" d="M342.387,157.945c0,1.943-1.355,3.25-3.214,3.25c-0.936,0-1.751-0.359-2.268-1.079v1.007h-1.103
					v-8.899h1.151v3.502c0.527-0.684,1.319-1.02,2.219-1.02C341.031,154.706,342.387,156.002,342.387,157.945z M341.224,157.945
					c0-1.355-0.924-2.231-2.147-2.231c-1.211,0-2.135,0.876-2.135,2.231c0,1.355,0.924,2.243,2.135,2.243
					C340.3,160.188,341.224,159.3,341.224,157.945z"/>
				<path style="fill:#263238;" d="M344.599,157.945c0-1.895,1.403-3.238,3.31-3.238c1.907,0,3.299,1.343,3.299,3.238
					c0,1.895-1.392,3.25-3.299,3.25C346.002,161.195,344.599,159.84,344.599,157.945z M350.044,157.945
					c0-1.355-0.912-2.231-2.136-2.231c-1.223,0-2.147,0.876-2.147,2.231c0,1.355,0.924,2.243,2.147,2.243
					C349.132,160.188,350.044,159.3,350.044,157.945z"/>
				<path style="fill:#263238;" d="M359.931,154.767v6.356h-1.092v-0.959c-0.468,0.66-1.26,1.031-2.159,1.031
					c-1.643,0-2.734-0.899-2.734-2.77v-3.658h1.151v3.526c0,1.247,0.624,1.871,1.715,1.871c1.2,0,1.968-0.744,1.968-2.111v-3.286
					H359.931z"/>
				<path style="fill:#263238;" d="M366.903,160.751c-0.348,0.3-0.875,0.443-1.391,0.443c-1.283,0-2.015-0.707-2.015-1.991v-3.49
					h-1.08v-0.947h1.08v-1.391h1.151v1.391h1.822v0.947h-1.822v3.442c0,0.684,0.359,1.067,0.995,1.067
					c0.336,0,0.659-0.108,0.899-0.3L366.903,160.751z"/>
				<path style="fill:#263238;" d="M373.048,154.946c0-0.768-0.636-1.295-1.716-1.295c-0.971,0-1.667,0.335-2.147,0.947
					l-0.875-0.624c0.659-0.852,1.702-1.343,3.105-1.343c1.728,0,2.843,0.803,2.843,2.135c0,2.003-2.123,2.135-2.123,3.706h-1.199
					C370.936,156.589,373.048,156.326,373.048,154.946z M370.769,160.427c0-0.432,0.324-0.768,0.779-0.768
					c0.444,0,0.768,0.336,0.768,0.768c0,0.42-0.323,0.768-0.768,0.768C371.093,161.195,370.769,160.847,370.769,160.427z"/>
			</g>
			<line style="fill:none;stroke:#263238;stroke-miterlimit:10;" x1="264.61" y1="136.517" x2="264.61" y2="147.112"/>
			<g>
				<path d="M274.696,99.892v8.396h-0.983l-5.037-6.261v6.261h-1.199v-8.396h0.983l5.037,6.261v-6.261H274.696z"/>
				<path d="M278.049,99.964c0-0.42,0.335-0.756,0.779-0.756c0.443,0,0.779,0.324,0.779,0.732c0,0.432-0.323,0.768-0.779,0.768
					C278.384,100.708,278.049,100.384,278.049,99.964z M278.252,101.931h1.151v6.356h-1.151V101.931z"/>
				<path d="M282.213,105.109c0-1.895,1.403-3.238,3.358-3.238c1.139,0,2.086,0.468,2.59,1.355l-0.875,0.563
					c-0.408-0.624-1.031-0.912-1.728-0.912c-1.247,0-2.183,0.875-2.183,2.231c0,1.379,0.935,2.243,2.183,2.243
					c0.696,0,1.319-0.288,1.728-0.912l0.875,0.552c-0.504,0.888-1.451,1.367-2.59,1.367
					C283.616,108.359,282.213,107.004,282.213,105.109z"/>
				<path d="M293.24,105.325l-1.319,1.223v1.739h-1.151v-8.899h1.151v5.708l3.466-3.166h1.392l-2.675,2.626l2.939,3.73h-1.416
					L293.24,105.325z"/>
				<path d="M305.31,104.629v3.658h-1.151v-3.526c0-1.248-0.624-1.859-1.715-1.859c-1.224,0-2.015,0.732-2.015,2.111v3.274h-1.151
					v-6.356h1.103v0.959c0.468-0.647,1.284-1.02,2.291-1.02C304.218,101.871,305.31,102.759,305.31,104.629z"/>
				<path d="M313.686,104.45v3.838h-1.092v-0.839c-0.384,0.576-1.091,0.911-2.087,0.911c-1.439,0-2.351-0.768-2.351-1.871
					c0-1.02,0.66-1.859,2.555-1.859h1.823v-0.228c0-0.972-0.564-1.535-1.703-1.535c-0.756,0-1.523,0.264-2.015,0.684l-0.48-0.864
					c0.66-0.527,1.607-0.815,2.627-0.815C312.703,101.871,313.686,102.71,313.686,104.45z M312.535,106.345v-0.888h-1.775
					c-1.14,0-1.463,0.444-1.463,0.983c0,0.636,0.527,1.032,1.403,1.032C311.563,107.472,312.247,107.076,312.535,106.345z"/>
				<path d="M327.579,104.629v3.658h-1.151v-3.526c0-1.248-0.6-1.859-1.642-1.859c-1.151,0-1.907,0.732-1.907,2.111v3.274h-1.151
					v-3.526c0-1.248-0.6-1.859-1.644-1.859c-1.151,0-1.906,0.732-1.906,2.111v3.274h-1.151v-6.356h1.103v0.947
					c0.456-0.647,1.235-1.007,2.195-1.007c0.972,0,1.787,0.384,2.207,1.175c0.48-0.72,1.367-1.175,2.446-1.175
					C326.523,101.871,327.579,102.759,327.579,104.629z"/>
				<path d="M336.666,105.493h-5.157c0.143,1.115,1.043,1.859,2.303,1.859c0.743,0,1.367-0.252,1.835-0.768l0.636,0.744
					c-0.576,0.672-1.451,1.031-2.507,1.031c-2.051,0-3.418-1.355-3.418-3.25c0-1.883,1.355-3.238,3.19-3.238
					c1.835,0,3.142,1.319,3.142,3.274C336.689,105.241,336.678,105.385,336.666,105.493z M331.509,104.665h4.077
					c-0.119-1.067-0.923-1.823-2.038-1.823C332.444,102.843,331.629,103.586,331.509,104.665z"/>
			</g>
		</g>
		<g>
			
				<ellipse transform="matrix(0.2347 -0.9721 0.9721 0.2347 225.3679 469.3662)" style="fill:#263238;" cx="410.773" cy="91.554" rx="49.323" ry="49.323"/>
			
				<ellipse transform="matrix(0.1626 -0.9867 0.9867 0.1626 258.4264 484.7292)" style="fill:#FFFFFF;stroke:#263238;stroke-miterlimit:10;" cx="414.781" cy="90.118" rx="47.44" ry="47.44"/>
			<g>
				<path style="fill:#C6FF00;" d="M450.7,121.1c-8.7,10.08-21.56,16.46-35.92,16.46c-5.99,0-11.73-1.11-17-3.14
					c-7.14-2.74-13.45-7.16-18.43-12.77c1.91-3.12,4.9-5.91,8.29-6.48c1.36-0.23,2.71-0.54,4.05-0.92c0.32-0.08,0.63-0.17,0.94-0.27
					c0.88-0.27,1.75-0.57,2.6-0.9c0.43-0.17,0.85-0.34,1.27-0.53c0.48-0.2,0.94-0.41,1.41-0.63c0.46-0.23,0.92-0.46,1.37-0.7
					s0.9-0.49,1.34-0.75s0.88-0.53,1.31-0.81c0.36-0.23,0.71-0.47,1.06-0.72c0.12-0.07,0.24-0.16,0.36-0.25
					c0.36-0.26,0.71-0.53,1.06-0.8c0.01,0,0.01,0,0.01-0.01c0.41-0.32,0.8-0.64,1.19-0.98c0.39-0.33,0.76-0.68,1.14-1.03
					c0,0,0-0.01,0.01-0.01c0.73-0.7,1.44-1.44,2.11-2.22l2.64-0.45l0.4-0.07l10.1-1.73l3.29-0.57l0.85-0.14
					c1.11,2.47,3.45,4.07,6,5.12c0.11,0.05,0.22,0.1,0.33,0.14c0.62,0.25,1.25,0.46,1.88,0.65c3.34,1.01,6.89,1.59,9.79,3.52
					C447.81,112.56,449.76,116.7,450.7,121.1z"/>
				<g>
					<path style="fill:#263238;" d="M409.061,102.844c-3.289,3.945-9.28,5.352-13.982,3.283c-0.422,1.389-0.224,2.953,0.532,4.192
						c-1.594-0.823-2.673-2.56-2.702-4.354c-0.63,1.372-1.022,2.853-1.154,4.357c-4.734,0.91-9.756-1.85-12.102-6.061
						c-2.347-4.211-2.205-9.541-0.254-13.949c-0.888,1.163-1.776,2.326-2.664,3.49c-0.851-2.107-0.145-4.545,1.024-6.494
						c1.168-1.949,2.773-3.61,3.937-5.562c3.107-5.211,2.698-11.691,3.672-17.68c0.362-2.224,0.967-4.498,2.416-6.223
						c1.449-1.725,3.932-2.75,6.027-1.92c0.371-2.809,3.913-4.126,6.54-5.188c4.349-1.758,9.003-3.474,13.623-2.662
						c7.404,1.302,12.345,8.588,19.437,11.081c3.667,1.289,7.68,1.208,11.429,2.235c3.75,1.027,7.551,3.767,7.786,7.647
						c-1.321-0.696-2.642-1.393-3.963-2.089c5.923,7.353,6.541,18.528,1.465,26.49c-0.248-1.229-0.496-2.459-0.745-3.688
						c0.413,1.793-1.062,3.435-2.499,4.583c-3.95,3.153-8.911,5.475-13.932,4.899c-1.486-0.17-2.933-0.588-4.409-0.828
						c-4.283-0.695-8.802,0.175-12.522,2.409C414.079,101.979,411.319,103.023,409.061,102.844z"/>
					<path style="fill:#FFFFFF;stroke:#263238;stroke-linecap:round;stroke-linejoin:round;" d="M410.82,94.41
						c-1.426,1.961-3.744,8.022-4.279,13.014c-0.535,4.991,0,13.192,1.248,13.192c1.248,0,3.387-10.696,3.387-10.696
						s0.891,4.1,3.031,5.348c2.139,1.248,5.883,9.627,5.883,9.627s4.992-9.092,5.705-12.122c0.713-3.031,0.891-4.457,1.783-3.387
						c0.891,1.07,3.209,5.705,4.1,7.844c0.891,2.139,1.604-6.952,0.357-11.944c-1.248-4.992-4.1-8.379-4.457-9.627
						c-0.357-1.248-2.318-2.496-2.318-2.496C418.307,85.853,412.246,92.449,410.82,94.41z"/>
					<path style="fill:#FFFFFF;stroke:#263238;stroke-linecap:round;stroke-linejoin:round;" d="M409.393,97.441
						c1.405,3.211,2.48,6.555,3.209,9.983c0.891,4.813,6.596,15.331,7.487,17.47c0.891,2.139,3.565-6.774,4.635-12.835
						c1.07-6.061-0.248-20.739-0.248-20.739C419.485,97.915,409.393,97.441,409.393,97.441z"/>
					<path style="fill:#FFFFFF;stroke:#263238;stroke-linecap:round;stroke-linejoin:round;" d="M398.935,64.329
						c-0.838,2.168-1.937,4.22-2.997,6.284c-0.929,1.808-2.211,3.713-2.018,5.828c0.2,2.189,6.101,13.949,8.597,16.709
						c2.496,2.76,11.113,9.47,14.837,6.938c8.23-5.596,7.485-22.185,6.608-24.902c-0.875-2.71-2.005-2.007-2.011-2.004
						c-0.465,0.288-1.646-0.668-2.089-0.854c-2.538-1.066-5.325-1.142-7.894-2.188c-2.697-1.097-5.287-2.746-7.233-4.928
						c-1.605-1.8-3.017-3.871-5.474-4.553C400.054,60.88,399.592,62.63,398.935,64.329z"/>
					<path style="fill:none;stroke:#263238;stroke-linecap:round;stroke-linejoin:round;" d="M400.6,78.15
						c2.384-3.25,5.347-1.132,5.347-1.132"/>
					<path style="fill:none;stroke:#263238;stroke-linecap:round;stroke-linejoin:round;" d="M416.039,72.701
						c-4.711-1.476-5.434,2.199-5.434,2.199"/>
					<path style="fill:#263238;" d="M406.187,81.406c0.194,0.814,0.051,1.546-0.318,1.634c-0.37,0.088-0.827-0.501-1.02-1.315
						c-0.194-0.814-0.052-1.546,0.318-1.634C405.536,80.002,405.993,80.591,406.187,81.406z"/>
					<path style="fill:#263238;" d="M415.828,79.021c0.194,0.814,0.051,1.546-0.318,1.634c-0.37,0.088-0.827-0.501-1.021-1.315
						c-0.194-0.814-0.051-1.546,0.318-1.634C415.178,77.618,415.635,78.207,415.828,79.021z"/>
					<path style="fill:none;stroke:#263238;stroke-linecap:round;stroke-linejoin:round;" d="M410.606,77.196
						c0,4.847,3.212,7.938,3.034,9.646c-0.018,0.171-0.198,0.278-0.35,0.198c-0.743-0.395-1.616-1.011-2.349-1.376"/>
					<path style="fill:none;stroke:#263238;stroke-linecap:round;stroke-linejoin:round;" d="M407.452,89.801
						c0,0,2.226,3.021,6.013,2.292"/>
					<path style="fill:#263238;" d="M410.326,99.722c0,0,4.257,9.788,7.777,8.934s5.587-16.919,5.587-16.919
						s-4.181,7.85-7.671,9.075C413.119,101.831,410.326,99.722,410.326,99.722z"/>
				</g>
				<path style="fill:none;stroke:#263238;stroke-linecap:round;stroke-linejoin:round;" d="M406.75,105.87
					c-0.37,0.35-0.75,0.7-1.14,1.03c-0.39,0.34-0.78,0.67-1.19,0.98c0,0.01,0,0.01-0.01,0.01c-0.34,0.28-0.7,0.54-1.06,0.8
					c-0.12,0.09-0.24,0.18-0.36,0.25c-0.35,0.26-0.7,0.49-1.06,0.72c-0.43,0.29-0.86,0.56-1.31,0.81c-0.44,0.27-0.89,0.52-1.34,0.75
					c-0.45,0.25-0.91,0.48-1.37,0.7s-0.93,0.44-1.41,0.63c-0.42,0.19-0.84,0.37-1.27,0.53c-0.85,0.33-1.72,0.63-2.6,0.9
					c-0.31,0.1-0.63,0.19-0.94,0.27c-1.34,0.38-2.69,0.69-4.05,0.92c-3.39,0.57-6.38,3.36-8.29,6.48"/>
				<path style="fill:none;stroke:#263238;stroke-linecap:round;stroke-linejoin:round;" d="M450.7,121.1
					c-0.94-4.4-2.89-8.54-6.55-10.99c-2.9-1.93-6.45-2.51-9.79-3.52c-0.63-0.19-1.26-0.4-1.88-0.65c-0.11-0.04-0.22-0.08-0.33-0.13"
					/>
				<path style="fill:#263238;" d="M422.28,130.6c0,1.107-0.618,2.004-1.38,2.004c-0.762,0-1.38-0.897-1.38-2.004
					c0-1.107,0.618-2.004,1.38-2.004C421.662,128.597,422.28,129.494,422.28,130.6z"/>
				<path style="fill:none;stroke:#263238;stroke-linecap:round;stroke-linejoin:round;" d="M392.65,121.26
					c2.33,4.11,4.06,8.56,5.13,13.16"/>
				<path style="fill:none;stroke:#263238;stroke-linecap:round;stroke-linejoin:round;" d="M397.362,121.726
					c0.438,2.42,0.877,4.841,1.315,7.262"/>
			</g>
			
				<ellipse transform="matrix(0.1626 -0.9867 0.9867 0.1626 258.4264 484.7292)" style="fill:none;stroke:#263238;stroke-miterlimit:10;" cx="414.781" cy="90.118" rx="47.44" ry="47.44"/>
		</g>
	</g>
</g>
<g id="Plant">
	<g>
		<path style="fill:#FFFFFF;stroke:#263238;stroke-miterlimit:10;" d="M322.188,396.259v35.17c0,2.523,21.795,8.445,49.502,8.445
			c27.708,0,50.836-5.923,50.836-8.445v-35.17H322.188z"/>
		<path style="fill:#FFFFFF;stroke:#263238;stroke-width:2;stroke-miterlimit:10;" d="M322.188,418.071
			c0,2.523,21.795,8.445,49.502,8.445c27.708,0,50.836-5.923,50.836-8.445"/>
		<path style="fill:#C6FF00;stroke:#263238;stroke-miterlimit:10;" d="M422.53,396.258c0,1.097-4.25,2.498-11.339,3.724
			c-9.2,1.586-23.185,2.895-38.838,2.895c-15.653,0-29.629-1.309-38.829-2.895c-7.089-1.226-11.339-2.627-11.339-3.724
			c0-2.526,22.466-4.563,50.168-4.563C400.065,391.695,422.53,393.732,422.53,396.258z"/>
		<path style="fill:#263238;" d="M411.191,399.983c-9.2,1.586-23.185,2.895-38.838,2.895c-15.653,0-29.629-1.309-38.829-2.895
			c7.31-1.281,21.959-2.148,38.829-2.148C389.233,397.835,403.881,398.701,411.191,399.983z"/>
		<g id="Plants--inject-83_2_">
			<path style="fill:#C6FF00;" d="M390.304,240.943c0,0,0-5.181-7.255-12.427s-11.901-11.394-11.901-11.394
				s-3.632,11.911,3.107,19.166c4.951,5.098,10.319,9.773,16.05,13.976V240.943z"/>
			<path style="fill:#C6FF00;" d="M379.776,273.282c0,0,0-5.181-7.246-12.427c-7.246-7.246-11.911-11.394-11.911-11.394
				s-3.623,11.91,3.107,19.156c4.949,5.103,10.318,9.781,16.05,13.985V273.282z"/>
			<path style="fill:#C6FF00;" d="M389.843,249.765c0,0,0.553-5.153,8.527-11.597c7.974-6.444,13.044-10.067,13.044-10.067
				s2.342,12.224-5.116,18.723c-5.462,4.549-11.296,8.632-17.442,12.206L389.843,249.765z"/>
			<path style="fill:#C6FF00;" d="M377.14,287.949c0,0,1.079-5.061,9.689-10.629c8.61-5.568,14.031-8.647,14.031-8.647
				s1.051,12.408-7.052,18.087c-5.908,3.955-12.137,7.409-18.622,10.325L377.14,287.949z"/>
			<path style="fill:#C6FF00;" d="M379.527,329.59c0,0,0-5.181,7.246-12.427c7.246-7.246,11.91-11.394,11.91-11.394
				s3.623,11.911-3.107,19.156c-4.949,5.103-10.318,9.781-16.05,13.985V329.59z"/>
			<path style="fill:#C6FF00;" d="M379.407,339.749c0,0,0.738-5.126-5.411-13.33c-6.149-8.205-10.141-12.961-10.141-12.961
				s-5.282,11.265,0.35,19.359c4.174,5.754,8.824,11.148,13.902,16.123L379.407,339.749z"/>
			<path style="fill:#C6FF00;" d="M372.254,369.912c0,0,0-5.181,7.255-12.427c7.255-7.246,11.901-11.394,11.901-11.394
				s3.632,11.911-3.107,19.156c-4.952,5.1-10.32,9.778-16.05,13.985V369.912z"/>
			<path style="fill:#C6FF00;" d="M391.436,388.671c-2.756,4.877-5.826,9.56-9.2,14.031c-0.94,0.037-1.899,0.064-2.858,0.083
				c-0.267,0.009-0.544,0.018-0.821,0.018l-1.392-5.328l-0.074-0.295c0,0-0.433-1.659,0.194-4.748c0.323-1.65,0.95-3.706,2.111-6.13
				c0.442-0.931,0.959-1.917,1.567-2.95c5.181-8.813,8.629-14.04,8.629-14.04S396.119,379.914,391.436,388.671z"/>
			<path style="fill:none;stroke:#263238;stroke-linecap:round;stroke-linejoin:round;" d="M378.318,402.813
				c-0.498-1.678-0.996-3.383-1.484-5.089c-0.387-1.337-0.756-2.664-1.125-3.964c-0.35-1.291-0.701-2.554-1.023-3.789
				c-1.106-4.167-1.991-7.91-2.443-10.583c-0.489-2.95-0.415-5.771,0.009-8.629c0.203-1.364,0.479-2.729,0.82-4.121
				c1.263-5.282,3.309-10.933,4.831-17.903c0.323-1.475,0.627-2.996,0.885-4.6l0.028-0.184c0.147-0.894,0.286-1.816,0.406-2.756
				c0.028-0.23,0.055-0.47,0.083-0.701c0.046-0.433,0.092-0.867,0.129-1.309c0-0.009,0-0.028,0-0.046
				c0.046-0.479,0.074-0.959,0.092-1.438c0.101-1.881,0.092-3.761,0-5.623c-0.599-12.602-4.812-24.835-3.955-35.169
				c0.092-1.189,0.258-2.351,0.498-3.485c0.627-2.904,1.447-5.623,2.397-8.26c0.323-0.931,0.673-1.853,1.033-2.775
				c0.018-0.055,0.046-0.12,0.074-0.184c0.065-0.175,0.138-0.35,0.203-0.525c3.245-8.14,7.237-15.828,9.2-25.988
				c0.24-1.318,0.452-2.627,0.655-3.955l0.009-0.046c0.083-0.581,0.175-1.161,0.249-1.742c0.046-0.323,0.092-0.645,0.129-0.968
				c0.111-0.765,0.203-1.54,0.286-2.305c0.277-2.351,0.489-4.702,0.654-7.061"/>
			
				<line style="fill:none;stroke:#263238;stroke-linecap:round;stroke-linejoin:round;" x1="389.769" y1="253.204" x2="397.587" y2="247.212"/>
			
				<line style="fill:none;stroke:#263238;stroke-linecap:round;stroke-linejoin:round;" x1="390.138" y1="246.299" x2="386.865" y2="240.482"/>
			<path style="fill:none;stroke:#263238;stroke-linecap:round;stroke-linejoin:round;" d="M376.513,292.807
				c0,0,6.536-4.904,13.257-9.809"/>
			<path style="fill:none;stroke:#263238;stroke-linecap:round;stroke-linejoin:round;" d="M379.776,282.602
				c0,0-5.448-10.684-11.625-17.783"/>
			<path style="fill:none;stroke:#263238;stroke-linecap:round;stroke-linejoin:round;" d="M379.785,336.955
				c3.733-6.867,8.444-13.155,13.985-18.668"/>
			<path style="fill:none;stroke:#263238;stroke-linecap:round;stroke-linejoin:round;" d="M378.513,344.22
				c-1.987-4.669-4.358-9.165-7.089-13.441c-3.817-5.633-4.36-6.361-4.36-6.361"/>
			<path style="fill:none;stroke:#263238;stroke-linecap:round;stroke-linejoin:round;" d="M372.254,379.389
				c1.659-4.114,3.628-8.095,5.891-11.911c2.264-3.536,4.817-6.878,7.633-9.993"/>
			<path style="fill:none;stroke:#263238;stroke-linecap:round;stroke-linejoin:round;" d="M379.378,402.785
				c0.12-2.249,0.59-5.282,2.046-8.057c2.766-5.264,5.817-12.178,7.089-14.897"/>
			<path style="fill:#C6FF00;" d="M342.837,310.12c0,0-0.562-3.254,3.19-8.583c3.752-5.328,6.232-8.435,6.232-8.435
				s3.568,7.071,0.129,12.353c-2.55,3.736-5.409,7.251-8.546,10.509L342.837,310.12z"/>
			<path style="fill:#C6FF00;" d="M352.941,329.249c0,0-0.562-3.245,3.199-8.573s6.232-8.444,6.232-8.444s3.558,7.08,0.129,12.353
				c-2.551,3.735-5.409,7.251-8.546,10.509L352.941,329.249z"/>
			<path style="fill:#C6FF00;" d="M344.072,315.596c0,0-0.922-3.171-6.6-6.342c-5.679-3.171-9.274-4.895-9.274-4.895
				s-0.138,7.919,5.292,11.164c3.916,2.259,8.014,4.187,12.252,5.762L344.072,315.596z"/>
			<path style="fill:#C6FF00;" d="M356.195,338.163c0,0-1.235-3.051-7.237-5.614c-6.001-2.563-9.735-3.9-9.735-3.9
				s0.691,7.891,6.379,10.574c4.128,1.835,8.402,3.321,12.777,4.443L356.195,338.163z"/>
			<path style="fill:#C6FF00;" d="M359.209,364.538c0,0-0.562-3.254-5.891-7.006c-5.328-3.752-8.702-5.854-8.702-5.854
				s-0.986,7.863,4.029,11.68c3.659,2.657,7.532,5.007,11.579,7.025L359.209,364.538z"/>
			<path style="fill:#C6FF00;" d="M360.389,370.889c0,0-1.014-3.134,1.945-8.942c2.959-5.808,4.969-9.219,4.969-9.219
				s4.536,6.499,1.844,12.206c-1.995,4.059-4.327,7.945-6.969,11.616L360.389,370.889z"/>
			<path style="fill:#C6FF00;" d="M369.488,397.079c0,0,0.378-3.273,5.531-7.375c5.153-4.102,8.361-6.333,8.361-6.333
				s1.429,7.79-3.356,11.883c-3.502,2.865-7.236,5.433-11.164,7.679L369.488,397.079z"/>
			<path style="fill:#C6FF00;" d="M368.142,389.004c0,0-0.562-3.245-5.891-7.006c-5.328-3.761-8.702-5.845-8.702-5.845
				s-0.986,7.854,4.019,11.671c3.66,2.66,7.536,5.01,11.588,7.025L368.142,389.004z"/>
			<path style="fill:#C6FF00;" d="M367.071,402.831c-1.364-0.028-2.72-0.065-4.047-0.111c-1.742-0.055-3.448-0.129-5.116-0.212
				c-3.522-4.932-0.701-12.021-0.701-12.021s2.719,2.867,6.932,7.873C365.578,400.075,366.49,401.587,367.071,402.831z"/>
			<path style="opacity:0.2;" d="M390.304,240.943c0,0,0-5.181-7.255-12.427s-11.901-11.394-11.901-11.394
				s-3.632,11.911,3.107,19.166c4.951,5.098,10.319,9.773,16.05,13.976V240.943z"/>
			<path style="opacity:0.2;" d="M379.776,273.282c0,0,0-5.181-7.246-12.427c-7.246-7.246-11.911-11.394-11.911-11.394
				s-3.623,11.91,3.107,19.156c4.949,5.103,10.318,9.781,16.05,13.985V273.282z"/>
			<path style="opacity:0.2;" d="M389.843,249.765c0,0,0.553-5.153,8.527-11.597c7.974-6.444,13.044-10.067,13.044-10.067
				s2.342,12.224-5.116,18.723c-5.462,4.549-11.296,8.632-17.442,12.206L389.843,249.765z"/>
			<path style="opacity:0.2;" d="M377.14,287.949c0,0,1.079-5.061,9.689-10.629c8.61-5.568,14.031-8.647,14.031-8.647
				s1.051,12.408-7.052,18.087c-5.908,3.955-12.137,7.409-18.622,10.325L377.14,287.949z"/>
			<path style="opacity:0.2;" d="M379.527,329.59c0,0,0-5.181,7.246-12.427c7.246-7.246,11.91-11.394,11.91-11.394
				s3.623,11.911-3.107,19.156c-4.949,5.103-10.318,9.781-16.05,13.985V329.59z"/>
			<path style="opacity:0.2;" d="M372.254,369.912c0,0,0-5.181,7.255-12.427c7.255-7.246,11.901-11.394,11.901-11.394
				s3.632,11.911-3.107,19.156c-4.952,5.1-10.32,9.778-16.05,13.985V369.912z"/>
			<path style="opacity:0.2;" d="M342.837,310.12c0,0-0.562-3.254,3.19-8.583c3.752-5.328,6.232-8.435,6.232-8.435
				s3.568,7.071,0.129,12.353c-2.55,3.736-5.409,7.251-8.546,10.509L342.837,310.12z"/>
			<path style="opacity:0.2;" d="M373.996,326.418c-6.149-8.205-10.141-12.961-10.141-12.961s-0.226,0.484-0.533,1.315
				c-0.446-1.535-0.951-2.542-0.951-2.542s-2.471,3.116-6.232,8.444c-3.761,5.328-3.199,8.573-3.199,8.573l1.014,5.845
				c2.818-2.928,5.398-6.073,7.745-9.388c0.233,2.41,0.954,4.881,2.506,7.111c4.174,5.754,8.824,11.148,13.902,16.123l1.3-9.191
				C379.407,339.749,380.145,334.623,373.996,326.418z"/>
			<path style="opacity:0.2;" d="M344.072,315.596c0,0-0.922-3.171-6.6-6.342c-5.679-3.171-9.274-4.895-9.274-4.895
				s-0.138,7.919,5.292,11.164c3.916,2.259,8.014,4.187,12.252,5.762L344.072,315.596z"/>
			<path style="opacity:0.2;" d="M356.195,338.163c0,0-1.235-3.051-7.237-5.614c-6.001-2.563-9.735-3.9-9.735-3.9
				s0.691,7.891,6.379,10.574c4.128,1.835,8.402,3.321,12.777,4.443L356.195,338.163z"/>
			<path style="opacity:0.2;" d="M359.209,364.538c0,0-0.562-3.254-5.891-7.006c-5.328-3.752-8.702-5.854-8.702-5.854
				s-0.986,7.863,4.029,11.68c3.659,2.657,7.532,5.007,11.579,7.025L359.209,364.538z"/>
			<path style="opacity:0.2;" d="M360.389,370.889c0,0-1.014-3.134,1.945-8.942c2.959-5.808,4.969-9.219,4.969-9.219
				s4.536,6.499,1.844,12.206c-1.995,4.059-4.327,7.945-6.969,11.616L360.389,370.889z"/>
			<path style="opacity:0.2;" d="M389.592,369.312c0,0-3.448,5.227-8.629,14.04c-0.608,1.032-1.124,2.018-1.566,2.948
				c-1.224,0.928-2.695,2.064-4.378,3.404c-5.153,4.102-5.531,7.375-5.531,7.375l-0.627,5.854c2.878-1.646,5.65-3.469,8.306-5.451
				l1.39,5.321c0.277,0,0.553-0.009,0.821-0.018c0.959-0.018,1.917-0.046,2.858-0.083c3.374-4.471,6.444-9.154,9.2-14.031
				C396.119,379.914,389.592,369.312,389.592,369.312z"/>
			<path style="opacity:0.2;" d="M368.142,389.004c0,0-0.562-3.245-5.891-7.006c-5.328-3.761-8.702-5.845-8.702-5.845
				s-0.986,7.854,4.019,11.671c3.66,2.66,7.536,5.01,11.588,7.025L368.142,389.004z"/>
			<path style="opacity:0.2;" d="M367.071,402.831c-1.364-0.028-2.72-0.065-4.047-0.111c-1.742-0.055-3.448-0.129-5.116-0.212
				c-3.522-4.932-0.701-12.021-0.701-12.021s2.719,2.867,6.932,7.873C365.578,400.075,366.49,401.587,367.071,402.831z"/>
			<path style="fill:none;stroke:#263238;stroke-linecap:round;stroke-linejoin:round;" d="M368.703,402.85
				c0.286-3.125,0.479-5.946,0.47-7.882c0-0.009,0-0.018,0-0.028c-0.018-1.871-0.359-3.614-0.931-5.338
				c-0.277-0.867-0.618-1.733-0.996-2.609c-1.374-3.153-3.254-6.453-4.95-10.62c-0.415-1.014-0.811-2.065-1.18-3.19
				c-0.157-0.461-0.313-0.94-0.461-1.429c-0.018-0.064-0.037-0.138-0.055-0.203c-0.111-0.35-0.203-0.701-0.295-1.051
				c0-0.009-0.009-0.018,0-0.028c-0.092-0.313-0.166-0.636-0.23-0.949c-0.231-1.033-0.406-2.065-0.544-3.107
				c-1.06-8.057,0.286-16.336-1.392-22.816c-0.194-0.737-0.415-1.447-0.691-2.129c-0.701-1.752-1.512-3.356-2.388-4.904
				c-0.304-0.553-0.627-1.097-0.959-1.632c-0.009-0.037-0.037-0.074-0.055-0.111c-0.065-0.111-0.129-0.212-0.194-0.313
				c-2.913-4.757-6.25-9.145-8.583-15.303c-0.295-0.802-0.581-1.613-0.848-2.434c-0.018-0.046-0.037-0.092-0.046-0.138
				c-0.101-0.304-0.203-0.608-0.295-0.922c-0.065-0.166-0.12-0.332-0.166-0.507c-0.166-0.498-0.314-0.996-0.461-1.493
				c-0.433-1.447-0.82-2.895-1.18-4.36"/>
			
				<line style="fill:none;stroke:#263238;stroke-linecap:round;stroke-linejoin:round;" x1="344.496" y1="317.744" x2="338.947" y2="314.831"/>
			
				<line style="fill:none;stroke:#263238;stroke-linecap:round;stroke-linejoin:round;" x1="343.519" y1="313.457" x2="344.939" y2="309.456"/>
			<path style="fill:none;stroke:#263238;stroke-linecap:round;stroke-linejoin:round;" d="M357.107,341.141
				c0,0-4.609-2.36-9.375-4.711"/>
			<path style="fill:none;stroke:#263238;stroke-linecap:round;stroke-linejoin:round;" d="M353.955,335.093
				c1.357-4.304,3.148-8.458,5.347-12.399"/>
			<path style="fill:none;stroke:#263238;stroke-linecap:round;stroke-linejoin:round;" d="M359.855,369.184
				c-3.09-3.911-6.729-7.355-10.804-10.224"/>
			<path style="fill:none;stroke:#263238;stroke-linecap:round;stroke-linejoin:round;" d="M361.44,373.6
				c0.734-3.151,1.73-6.234,2.978-9.219c1.789-3.946,2.047-4.462,2.047-4.462"/>
			<path style="fill:none;stroke:#263238;stroke-linecap:round;stroke-linejoin:round;" d="M368.926,400.583
				c0,0,3.687-4.508,5.965-6.195c1.384-1.017,2.682-2.145,3.881-3.374"/>
			<path style="fill:none;stroke:#263238;stroke-linecap:round;stroke-linejoin:round;" d="M369.175,394.968
				c-1.484-2.402-3.152-4.686-4.987-6.831c-1.802-1.967-3.763-3.784-5.863-5.43"/>
			<path style="fill:none;stroke:#263238;stroke-linecap:round;stroke-linejoin:round;" d="M359.06,397.014
				c0.765,1.097,2.323,3.392,3.964,5.706"/>
		</g>
	</g>
</g>
<g id="Table">
	<g>
		<g>
			<path style="fill:#FFFFFF;stroke:#263238;stroke-miterlimit:10;" d="M275.152,424.102c-9.085-6.373-19.554-16.681-22.96-31.697
				c0,0-3.53,9.938-11.081,19.964c-6.37,8.458-15.469,14.355-25.599,17.435c-2.494,0.759-3.894,1.61-3.894,2.509
				c0,3.19,17.584,5.776,39.275,5.776c21.691,0,39.275-2.586,39.275-5.776c0-0.788-1.077-1.539-3.022-2.223
				C282.908,428.6,278.83,426.682,275.152,424.102z"/>
			<polygon style="fill:#FFFFFF;stroke:#263238;stroke-miterlimit:10;" points="248.183,262 240.038,399.427 251.122,415.483 
				262.051,401.623 255.757,262.379 			"/>
		</g>
		<g>
			<path style="fill:#263238;" d="M296.125,250.24h-88.812H187.26v7.185c0,5.467,28.859,9.908,64.459,9.908
				s64.459-4.44,64.459-9.908v-7.185H296.125z"/>
			<ellipse style="fill:#C6FF00;" cx="251.722" cy="250.244" rx="64.458" ry="9.91"/>
			
				<ellipse style="fill:none;stroke:#263238;stroke-linecap:round;stroke-linejoin:round;stroke-miterlimit:10;" cx="251.722" cy="250.244" rx="64.458" ry="9.91"/>
		</g>
		<g id="Plant--inject-1--inject-2_1_">
			<path style="fill:#FFFFFF;stroke:#263238;stroke-linecap:round;stroke-linejoin:round;" d="M295.69,230.402h-33
				c0,0,0,8.86,4.66,20.45c0,2.22,5.33,4,11.91,4c6.58,0,11.9-1.79,11.9-4c0.014-0.109,0.014-0.22,0-0.33
				C295.64,239.092,295.69,230.402,295.69,230.402z"/>
			
				<ellipse style="fill:#FFFFFF;stroke:#263238;stroke-linecap:round;stroke-linejoin:round;" cx="279.3" cy="230.402" rx="16.57" ry="4.81"/>
			
				<ellipse style="fill:#FFFFFF;stroke:#263238;stroke-linecap:round;stroke-linejoin:round;" cx="279.3" cy="230.402" rx="14.87" ry="4.02"/>
			<path style="fill:#263238;stroke:#263238;stroke-linecap:round;stroke-linejoin:round;" d="M265.83,232.102
				c2.38,1.37,7.51,2.31,13.47,2.31c5.96,0,11.09-0.94,13.46-2.31c-2.37-1.36-7.51-2.31-13.46-2.31
				C273.35,229.792,268.21,230.742,265.83,232.102z"/>
			<path style="fill:#C6FF00;stroke:#263238;stroke-miterlimit:10;" d="M272.37,232.482c0,0-4.31-10.76-3.05-13.63
				s5.38-2.51,6.82,0.36s2.15,13.63,2.15,13.63S273.98,234.282,272.37,232.482z"/>
			<path style="fill:#C6FF00;stroke:#263238;stroke-miterlimit:10;" d="M276.14,233.562c0,0-3.41-19-2.52-22.6
				c0.89-3.6,5.39-4.85,8.61-2.16s2,16.33,2,18.3s-0.18,6.1-0.18,6.1C281.493,234.028,278.761,234.152,276.14,233.562z"/>
			<path style="fill:#C6FF00;stroke:#263238;stroke-miterlimit:10;" d="M283.13,233.202c0,0-2.66-7.36-1.07-10.23
				c1.59-2.87,4.84-1.79,4.84,0.54c0,2.33,0.18,7.9-0.18,9.15C286.36,233.912,284.39,234.282,283.13,233.202z"/>
			<path style="fill:none;stroke:#263238;stroke-linecap:round;stroke-linejoin:round;" d="M279.19,233.022
				c-4.49-17-0.72-25.47-0.72-25.47s5.38,9.33,2.51,25.47"/>
			<path style="fill:none;stroke:#263238;stroke-linecap:round;stroke-linejoin:round;" d="M271.83,218.492
				c0,0-4.13,0.18,2.69,14.35"/>
		</g>
	</g>
</g>
<g id="Character">
	<g>
		<g>
			<g>
				<path style="fill:#FFFFFF;stroke:#263238;stroke-miterlimit:10;" d="M173.702,425.766c-9.085-5.615-19.554-14.697-22.96-27.926
					c0,0-3.53,8.756-11.081,17.589c-6.37,7.452-15.469,12.647-25.599,15.362c-2.495,0.668-3.894,1.418-3.894,2.211
					c0,2.81,17.584,5.089,39.275,5.089c21.691,0,39.275-2.278,39.275-5.089c0-0.694-1.077-1.356-3.022-1.959
					C181.458,429.728,177.38,428.039,173.702,425.766z"/>
				<polygon style="fill:#FFFFFF;stroke:#263238;stroke-miterlimit:10;" points="146.732,282.945 138.588,404.025 149.672,418.172 
					160.601,405.96 154.307,283.279 				"/>
			</g>
			<path style="fill:#263238;" d="M193.85,288.502h-88.812H84.984v7.185c0,5.467,28.859,9.908,64.459,9.908
				c35.601,0,64.459-4.441,64.459-9.908v-7.185H193.85z"/>
			<ellipse style="fill:#C6FF00;stroke:#263238;stroke-miterlimit:10;" cx="149.446" cy="288.506" rx="64.458" ry="9.91"/>
		</g>
		<g>
			<g>
				<g>
					<g>
						<path style="fill:#FFFFFF;" d="M252.8,406.38c-2.16,2.4-5.96,2.39-9.04,1.45c-4.68-1.44-8.7-4.52-13.31-6.14
							c-5.66-2-12.37-1.92-16.77-6.01c-2.26-2.1-3.56-5.07-4.15-8.12c-0.04-0.22-0.08-0.45-0.12-0.68
							c-0.51-3.28-0.29-6.63-0.07-9.94l10.95-6.39c7.22,10.25,19.5,19.94,26.53,25.61c2.53,2.06,4.38,3.58,5.06,4.42
							C254.45,403.73,252.8,406.38,252.8,406.38z"/>
						<path style="fill:none;stroke:#263238;stroke-miterlimit:10;" d="M209.341,376.935c-0.222,3.314-0.442,6.661,0.072,9.943
							c0.514,3.282,1.833,6.539,4.266,8.801c4.398,4.087,11.11,4.009,16.771,6.007c4.613,1.628,8.631,4.706,13.307,6.141
							c3.085,0.947,6.886,0.957,9.044-1.443c0,0,1.643-2.652-0.92-5.808c-2.564-3.155-21.764-16.071-31.587-30.023L209.341,376.935z
							"/>
					</g>
					<path style="fill:#263238;" d="M119.88,247.084c0,0-12.637,12.868-11.494,28.487c1.143,15.619,21.334,22.476,34.667,27.81
						c13.333,5.333,22.64,14.095,22.64,14.095s-4.354,12.191,7.075,27.429c11.429,15.238,37.343,34.286,37.343,34.286
						s7.568,0.381,11.017-7.619c0,0-25.025-43.81-31.169-62.096c0,0-1.147-13.951-6.909-19.048c0,0,7.644-8.155,7.567-17.329
						c-0.077-9.174-8.617-23.469-18.618-30.083l-0.738,2.281l-8.961,7.31c0,0-20.502,1.628-34.715-10.18v-3.438l-1.134,1.42
						L119.88,247.084z"/>
					<path style="fill:none;stroke:#FFFFFF;stroke-linecap:round;stroke-linejoin:round;stroke-miterlimit:10;" d="M180.055,286.2
						c1.142,1.444,2.157,2.863,2.994,4.228"/>
					<path style="fill:none;stroke:#FFFFFF;stroke-linecap:round;stroke-linejoin:round;stroke-miterlimit:10;" d="M154.848,262.391
						c0,0,13.378,10.324,22.469,20.554"/>
					<path style="fill:none;stroke:#FFFFFF;stroke-linecap:round;stroke-linejoin:round;stroke-miterlimit:10;" d="M165.692,271.482
						c0,0,4.739-4.546,5.605-9.091"/>
					<path style="fill:#263238;" d="M252.8,406.38c-2.16,2.4-5.96,2.39-9.04,1.45c-4.68-1.44-8.7-4.52-13.31-6.14
						c-5.66-2-12.37-1.92-16.77-6.01c-2.26-2.1-4.3-6.789-4.593-12.463c2.837,2.935,6.258,5.358,9.098,6.848
						c3.4,1.78,6.995,3.885,10.365,5.725c3.51,1.91,7.294,3.588,11.254,4.058c0.99,0.12,2.552,0.005,3.473-0.391
						c2.837-1.223,2.397-3.13,2.462-4.109c2.53,2.06,5.461,4.392,6.141,5.232C254.45,403.73,252.8,406.38,252.8,406.38z"/>
				</g>
				<g>
					<g>
						<g>
							<path style="fill:#FFFFFF;" d="M159.23,420.34c-0.01,7.85-2.36,15.96-7.84,21.58c-0.98,0.99-2.12,1.94-3.5,2.12
								c-1.77,0.23-3.46-0.89-4.6-2.26c-2.2-2.68-2.88-6.34-2.73-9.81c0.14-3.47,1.01-6.86,1.55-10.29c0.22-1.43,0.39-2.86,0.5-4.3
								c0.25-3.43,0.18-6.88-0.22-10.3c-0.43-3.69-1.25-7.36,1.46-10.18c2.07-2.15,5.96-5.38,8.96-2.93
								c1.01,0.82,1.47,2.13,1.87,3.37c0.46,1.43,0.92,2.86,1.35,4.31C157.85,407.75,159.24,413.99,159.23,420.34z"/>
							<path style="fill:none;stroke:#263238;stroke-miterlimit:10;" d="M142.389,407.082c0.569,4.847,0.474,9.772-0.281,14.594
								c-0.537,3.43-1.408,6.822-1.551,10.291c-0.143,3.469,0.529,7.128,2.735,9.81c1.133,1.377,2.826,2.493,4.595,2.265
								c1.38-0.178,2.528-1.128,3.499-2.124c5.482-5.617,7.837-13.732,7.844-21.581c0.007-7.849-2.116-15.537-4.548-23
								c-0.404-1.24-0.864-2.547-1.874-3.372c-2.995-2.447-6.892,0.788-8.955,2.931C141.138,399.716,141.956,403.39,142.389,407.082
								z"/>
						</g>
						<path style="fill:#263238;" d="M142.228,402.01c0,0,5.636,8.454,13.808,0c0,0-1.127-23.678,1.409-35.932
							c2.536-12.254,12.117-50.577-1.409-63.821c-13.526-13.244-25.643-0.845-27.897,9.863c-2.254,10.708,4.79,41.141,9.017,55.231
							C141.383,381.44,142.228,402.01,142.228,402.01z"/>
					</g>
					<path style="fill:none;stroke:#FFFFFF;stroke-linecap:round;stroke-linejoin:round;stroke-miterlimit:10;" d="M160.415,309.09
						c0,0-8.434-22.064-26.351-9.308"/>
					<path style="fill:#263238;" d="M159.23,420.34c-0.01,7.85-2.36,15.96-7.84,21.58c-0.98,0.99-2.12,1.94-3.5,2.12
						c-1.77,0.23-3.46-0.89-4.6-2.26c-2.2-2.68-2.88-6.34-2.73-9.81c0.14-3.47,1.01-6.86,1.55-10.29c0.22-1.43,0.39-2.86,0.5-4.3
						c0.63,2.97,0.75,9.63,0.84,10.86c0.09,1.21,0.19,2.44,0.62,3.57c0.44,1.13,1.26,2.17,2.41,2.56c1.43,0.5,3.07-0.13,4.14-1.2
						c1.07-1.07,1.69-2.51,2.19-3.94c2.7-7.62,3.06-15.85,2.95-23.93c-0.01-1.23-0.03-2.47,0.27-3.65
						C157.85,407.75,159.24,413.99,159.23,420.34z"/>
				</g>
			</g>
			<g>
				<path style="fill:#263238;" d="M123.871,147.945c0,0-3.322,6.662,1.46,13.472c4.782,6.81,19.486,13.195,27.989,9.577
					c8.503-3.618,23.826-3.439,30.849,1.047c7.023,4.486,33.412,1.389,33.412-14.62c0,0,3.618,3.174,2.767,7.841
					c0,0,11.705-10.349-2.128-25.719c0,0,3.924-7.094-4.316-8.146c-8.24-1.052-9.01-5.521-9.796-10.203
					c-0.785-4.682-0.602-16.097-10.837-15.961c0,0-16.543-16.387-34.956-8.3c-18.413,8.087-13.963,20.005-22.679,18.302
					c0,0-0.648,1.915,0,3.192c0,0,2.776,6.384-1.267,9.364c-4.044,2.979-14.785,8.305-15.323,22.984
					C119.047,150.777,120.395,147.88,123.871,147.945z"/>
				<path style="fill:#FFFFFF;" d="M150.868,163.941l3.119-1.659l0.006-7.689c0,0,4.796,8.811,10.261,9.737
					c5.465,0.926,11.783-8.596,11.783-8.596s-1.075,6.126,0,7.663c1.075,1.537,10.116,6.26,10.116,6.26
					s-13.874,13.052-17.042,23.024c0,0-0.95-9.401-7.485-14.355C155.092,173.372,152.186,167.719,150.868,163.941z"/>
				<path style="fill:#C6FF00;" d="M150.868,163.941c0,0-5.831,1.849-11.284,0.873c-5.454-0.977-14.359-4.222-20.819,0.45
					c-6.46,4.672-5.267,23.421-5.992,28.664c-0.725,5.244-1.356,10.371-5.838,14.896c-4.482,4.526-7.503,17.49-6.326,22.279
					c0,0-3.31,4.491-0.9,12.822c2.411,8.331,4.341,6.774,4.341,6.774s9.885,0.387,14.998-2.702c0,0,5.121-4.159,6.829-7.589
					c1.708-3.43-1.15-9.305-1.15-9.305l2.858,2.973v8.35c0,0,10.698,7.814,21.674,9.351c13.041,0.829,12.57,0.812,12.57,0.812
					l9.199-6.487c0,0,4-12.454,7.813-16.951c3.813-4.497,12.759-12.231,13.333-16.799s-1.391-15.316-1.391-15.316
					s6.526,6.832,8.047,14.568c1.521,7.736,21.997-7.9,21.997-7.9s-6.044-11.467-7.634-17.633
					c-1.59-6.165-4.022-13.424-9.942-14.306c-5.92-0.882-17.588-1.78-17.588-1.78s-12.854,12.016-16.417,23.184
					c0,0-1.353-8.679-7.617-14.843C155.363,172.162,151.046,168.259,150.868,163.941z"/>
				<path style="opacity:0.6;fill:#FFFFFF;" d="M186.153,169.656c0,0-13.853,13.393-16.648,21.918c0,0-3.492-9.051-8.803-14.216
					c-5.311-5.165-7.936-9.267-9.834-13.418l-2.542,0.864c0,0-2.455,5.947-2.855,8.73l7.186,3.845l-0.587,13.2
					c0,0,12.675,13.063,13.962,21.023l3.473,2.029c0,0,1.708-9.887,0.899-15.277c0,0,1.964-2.679,6.912-4.653
					c4.947-1.974,8.271-3.736,8.271-3.736l-1.396-8.475c0,0,6.2-1.494,10.442-3.821l-6.252-7.463L186.153,169.656z"/>
				<path style="opacity:0.2;" d="M208.136,206.559c0,0-4.049-11.399-20.115-18.811l0.861,3.405l-4.072-0.528
					c0,0,0.983,17.331-4.902,23.007c-5.886,5.676-28.603,1.087-34.503,6.165l10.313,0.81c0,0-8.896,2.442-9.374,5.503
					c-0.477,3.061,12.248,1.47,17.338,3.856c0,0,1.191,14.985-3.302,22.524l1.447,0.099l9.432-7.293c0,0,5.705-15.566,10.04-19.186
					c4.335-3.62,10.822-9.654,10.724-14.507c-0.098-4.853-0.903-15.002-0.903-15.002s5.51,6.895,7.011,12.415
					S208.136,206.559,208.136,206.559z"/>
				<path style="fill:#FFFFFF;" d="M207.567,226.562c0,0,3.385,14.198,16.355,13.846c0,0,1.52,0.692,3.218-3.208
					c1.698-3.9,3.442-7.919,1.815-15.567c-1.627-7.648-6.929-16.12-6.929-16.12l-15.528,8.735L207.567,226.562z"/>
				<path style="fill:#FFFFFF;stroke:#263238;stroke-miterlimit:10;" d="M185.014,131.434c0,0-0.972-17.551-13.986-21.684
					c-13.014-4.133-24.308,5.973-26.832,19.799c0,0,2.951,14.601,4.878,18.077c1.927,3.477,9.424,15.307,14.834,16.71
					c5.41,1.402,12.935-9.225,15.93-13.831c2.995-4.606,5.141-12.333,5.581-19.072"/>
				<path style="fill:none;stroke:#263238;stroke-linecap:round;stroke-linejoin:round;stroke-miterlimit:10;" d="M163.653,150.611
					c0.296,0.507,0.668,0.97,1.098,1.369c1.519,1.411,2.013-0.826,1.997-1.966c-0.039-2.851,0.359-5.557,1.424-8.208"/>
				<path style="fill:none;stroke:#263238;stroke-linecap:round;stroke-linejoin:round;stroke-miterlimit:10;" d="M170.051,139.149
					c1.211-1.844,4.278-4.043,7.232-1.992"/>
				<path style="fill:none;stroke:#263238;stroke-linecap:round;stroke-linejoin:round;stroke-miterlimit:10;" d="M154.39,136.332
					c3.239-2.031,7.08-0.797,7.709,1.841"/>
				<path style="fill:#263238;" d="M172.962,143.978c-0.048,1.173-0.518,2.107-1.051,2.085c-0.533-0.022-0.926-0.99-0.878-2.163
					c0.048-1.173,0.518-2.107,1.051-2.085C172.616,141.837,173.009,142.805,172.962,143.978z"/>
				<path style="fill:#263238;" d="M159.561,143.665c-0.048,1.173-0.518,2.107-1.051,2.085c-0.533-0.022-0.925-0.99-0.878-2.163
					c0.048-1.173,0.518-2.106,1.051-2.085C159.216,141.523,159.609,142.492,159.561,143.665z"/>
				<path style="fill:#FFFFFF;stroke:#263238;stroke-miterlimit:10;" d="M183.049,143.872c0,0,1.075,0.575,3.622-1.641
					c2.547-2.216,4.723-6.528,3.676-8.331c-1.047-1.803-4.195,0.809-4.195,0.809L183.049,143.872z"/>
				<path style="fill:#FFFFFF;stroke:#263238;stroke-miterlimit:10;" d="M144.463,132.266c0,0-2.708-1.626-4.281-0.33
					c-1.741,1.434,0.786,6.24,1.661,7.618c1.096,1.725,3.262,3.198,5.086,1.618L144.463,132.266z"/>
				<path style="fill:none;stroke:#263238;stroke-linecap:round;stroke-linejoin:round;stroke-miterlimit:10;" d="M158.316,152.44
					c0,0,1.248,3.516,4.86,4.227"/>
				<path style="fill:none;stroke:#263238;stroke-linecap:round;stroke-linejoin:round;stroke-miterlimit:10;" d="M176.652,154.931
					c-1.575,3.506-1.492,6.602-0.566,10.332"/>
				<path style="fill:none;stroke:#263238;stroke-linecap:round;stroke-linejoin:round;stroke-miterlimit:10;" d="M153.656,154.592
					c0.406,2.562,0.294,4.119,0.332,6.713c0.022,1.49-0.026,3.025-0.621,4.391"/>
				<path style="fill:#263238;" d="M143.256,130.45c0,0,14.803-0.585,18.213-15.955c0,0,6.477,16.366,25.363,17.77
					c0,0,3.371-11.623,1.468-19.088c-1.903-7.465-11.2-13.905-23.677-12.881C152.146,101.322,141.832,105.859,143.256,130.45z"/>
				<path style="fill:none;stroke:#263238;stroke-linecap:round;stroke-linejoin:round;stroke-miterlimit:10;" d="M127.585,234.075
					v8.35c0,0,14.853,11.311,34.715,10.18l8.729-6.504c0,0,2.924-10.951,8.866-18.342c5.942-7.391,13.295-10.714,12.163-19.939
					c-1.131-9.225-1.441-12.336-1.441-12.336"/>
				<path style="fill:none;stroke:#263238;stroke-linecap:round;stroke-linejoin:round;stroke-miterlimit:10;" d="M153.656,162.968
					c0,0-8.5,3.294-17.183,1.362c-8.682-1.932-14.694-2.377-19.591,2.521c-4.898,4.898-2.226,30.961-6.456,36.853
					c-4.23,5.892-12.266,17.603-9.818,27.399"/>
				<path style="fill:none;stroke:#263238;stroke-miterlimit:10;" d="M125.84,235.828c2.329,4.227-2.52,8.006-5.96,11.256
					c-3.441,3.249-13.38,4.014-16.438,3.441c-3.058-0.573-5.161-11.277-4.587-14.718c0.573-3.441,2.485-6.69,5.352-8.046
					c2.867-1.357,4.97-10.303,7.11-11.52c2.14-1.217,3.379,2.746,3.379,2.746"/>
				<path style="fill:none;stroke:#263238;stroke-linecap:round;stroke-linejoin:round;stroke-miterlimit:10;" d="M152.803,220.252
					c6.485,0.788,12.969,1.577,19.454,2.365c1.838,0.223,3.854,0.538,5.059,1.944"/>
				<path style="fill:none;stroke:#263238;stroke-linecap:round;stroke-linejoin:round;stroke-miterlimit:10;" d="M130.536,205.143
					c0,0,1.187-9.932,0-14.563"/>
				<path style="fill:none;stroke:#263238;stroke-linecap:round;stroke-linejoin:round;stroke-miterlimit:10;" d="M131.064,201.516
					c2.11-2.113,3.844-4.599,5.098-7.309"/>
				<path style="fill:#FFFFFF;stroke:#263238;stroke-miterlimit:10;" d="M203.191,205.161c-2.579-0.424-4.879-2.267-5.855-4.693
					c-0.976-2.425-0.593-5.348,0.975-7.44c1.033-1.379,2.513-2.386,3.475-3.815c1.141-1.695,1.438-3.931,0.779-5.865
					c-0.659-1.934-2.26-3.523-4.199-4.168c1.975-0.093,3.819-0.216,5.777,0.063c3.94,0.563,6.327,3.315,5.5,7.459
					c-0.824,4.13-5.681,4.686-8.563,6.96c-1.563,1.233-2.362,2.684-2.347,4.675C198.755,201.136,200.657,203.972,203.191,205.161z"
					/>
				<path style="fill:none;stroke:#263238;stroke-linecap:round;stroke-linejoin:round;stroke-miterlimit:10;" d="M175.583,162.968
					c0,0,5.497,5.577,13.299,6.896c7.802,1.319,16.475,0.936,19.378,4.366c2.902,3.43,7.233,21.75,12.867,29.93
					c5.634,8.18,13.713,25.33,3.869,35.883c0,0-10.635,3.479-16.703-11.056"/>
				<path style="fill:none;stroke:#263238;stroke-linecap:round;stroke-linejoin:round;stroke-miterlimit:10;" d="M188.882,193.419
					c0,0,6.174,7.177,8.779,14.402"/>
				<path style="fill:#FFFFFF;stroke:#263238;stroke-miterlimit:10;" d="M202.001,227.76c0,0,3.883-2.786,9.204-2.166
					c5.322,0.621,4.832,2.119,3.902,2.496c-0.93,0.377-15.152,3.631-15.616,2.794C199.027,230.048,202.001,227.76,202.001,227.76z"
					/>
				<path style="fill:none;stroke:#263238;stroke-linecap:round;stroke-linejoin:round;stroke-miterlimit:10;" d="M150.868,163.941
					c0.45,4.711,4.376,8.202,7.819,11.449c2.782,2.624,5.444,5.438,7.35,8.753c5.212,9.062,4.06,20.287,2.75,30.659"/>
				<path style="fill:none;stroke:#263238;stroke-linecap:round;stroke-linejoin:round;stroke-miterlimit:10;" d="M148.948,163.893
					c-1.672,2.757-2.86,5.806-3.496,8.967c-0.045,0.225-0.085,0.47,0.019,0.674c0.099,0.195,0.306,0.307,0.5,0.407
					c2.229,1.146,4.457,2.292,6.686,3.439c-0.631,3.123-0.856,6.534-0.744,9.718c0.021,0.59,0.056,1.189,0.255,1.745
					c0.26,0.728,0.779,1.328,1.289,1.908c5.435,6.186,11.292,12.718,12.575,20.852"/>
				<path style="fill:none;stroke:#263238;stroke-linecap:round;stroke-linejoin:round;stroke-miterlimit:10;" d="M186.789,169.285
					c-1.421,0.751-2.616,1.861-3.749,3.001c-5.79,5.824-10.418,12.797-13.535,20.395"/>
				<path style="fill:none;stroke:#263238;stroke-linecap:round;stroke-linejoin:round;stroke-miterlimit:10;" d="M187.63,169.367
					c2.421,2.692,4.757,5.462,7.002,8.303c-3.094,2.109-6.717,3.435-10.442,3.821c0.467,2.558,0.934,5.116,1.401,7.673
					c0.049,0.267,0.096,0.55-0.005,0.802c-0.129,0.323-0.463,0.507-0.776,0.659c-4.956,2.409-10.929,3.456-14.406,7.73"/>
				<path style="fill:none;stroke:#263238;stroke-linecap:round;stroke-linejoin:round;stroke-miterlimit:10;" d="M161.47,114.495
					c0,0,0.87,19.792,24.682,20.213"/>
				<path style="fill:#FFFFFF;stroke:#263238;stroke-miterlimit:10;" d="M213.904,205.143c0,0,2.486,6.068,2.634,12.298
					c0.148,6.23-5.59,9.576-9.667,10.319c-4.077,0.743-9.06,0.515-12.383-3.675c-3.322-4.189-4.53-13.061-4.53-13.061
					L213.904,205.143z"/>
				<path style="fill:#FFFFFF;stroke:#263238;stroke-miterlimit:10;" d="M219.298,203.704c-0.789-0.01-1.546,0.288-2.273,0.594
					c-3.686,1.553-7.231,3.442-10.576,5.634c-0.303,0.199-0.635,0.449-0.664,0.811c-0.044,0.558,0.629,0.866,1.18,0.969
					c3.209,0.6,6.502-0.111,9.689-0.82c0.919-0.204,1.849-0.413,2.689-0.838C221.98,208.72,223.772,203.763,219.298,203.704z"/>
				<path style="fill:#FFFFFF;stroke:#263238;stroke-miterlimit:10;" d="M221.114,211.04c-2.696,0.243-5.33,0.932-7.948,1.619
					c-0.809,0.212-1.64,0.435-2.309,0.937c-0.238,0.179-0.468,0.431-0.451,0.728c0.02,0.352,0.367,0.585,0.688,0.732
					c1.121,0.512,2.365,0.676,3.587,0.835c2.963,0.384,6.624,0.862,9.205-1.057C226.744,212.708,223.456,210.829,221.114,211.04z"/>
				<path style="fill:#FFFFFF;stroke:#263238;stroke-miterlimit:10;" d="M213.293,217.556c-0.884,0.055-1.799,0.172-2.545,0.649
					c-0.231,0.148-0.447,0.336-0.558,0.587c-0.223,0.502,0.052,1.112,0.486,1.447c0.435,0.335,0.991,0.46,1.527,0.575
					c1.803,0.389,3.607,0.778,5.41,1.167c1.117,0.241,2.466,0.415,3.171-0.699c0.438-0.692,0.49-1.934-0.037-2.596
					C219.451,217.056,215.109,217.444,213.293,217.556z"/>
				<path style="fill:none;stroke:#263238;stroke-linecap:round;stroke-linejoin:round;stroke-miterlimit:10;" d="M105.053,226.975
					c-1.68,3.222-1.861,6.989-2.007,10.62"/>
				<path style="fill:none;stroke:#263238;stroke-linecap:round;stroke-linejoin:round;stroke-miterlimit:10;" d="M106.239,229.15
					c-0.072,7.447,4.786,14.702,11.7,17.471"/>
				<path style="fill:none;stroke:#263238;stroke-linecap:round;stroke-linejoin:round;stroke-miterlimit:10;" d="M174.358,225.766
					c-5.357-0.387-10.798-0.768-16.052,0.344"/>
				<polygon style="fill:#FFFFFF;stroke:#263238;stroke-miterlimit:10;" points="161.627,178.326 142.049,179.074 145.919,214.801 
					164.179,213.632 				"/>
				<g>
					<path style="fill:#FFFFFF;" d="M161.809,188.555l1.095,1.894l-5.585,10.201c3.042-0.716,7.874-6.085,8.679-5.026
						c0.805,1.059-12.975,14.69-16.375,15.539c-3.4,0.849-7.337,0-7.337,0c-2.684,3.176-17.714,27.824-17.714,27.824
						s-15.355-1.657-12.323-18.502c0,0,18.917-15.415,24.467-20.349c0,0,2.226-8.629,5.66-9.557l1.219,2.979
						c0,0,18.446-8.429,19.043-7.812c0.597,0.617,0,2.056,0,2.056s-10.299,9.462-12.765,9.973"/>
					<path style="fill:none;stroke:#263238;stroke-miterlimit:10;" d="M161.809,188.555l1.095,1.894l-5.585,10.201
						c3.042-0.716,7.874-6.085,8.679-5.026c0.805,1.059-12.975,14.69-16.375,15.539c-3.4,0.849-7.337,0-7.337,0
						c-2.684,3.176-17.714,27.824-17.714,27.824s-15.355-1.657-12.323-18.502c0,0,18.917-15.415,24.467-20.349
						c0,0,2.226-8.899,5.66-9.557l1.219,2.979c0,0,18.446-8.429,19.043-7.812c0.597,0.617,0,2.056,0,2.056
						s-10.299,9.462-12.765,9.973"/>
				</g>
				
					<path style="opacity:0.2;fill:none;stroke:#FFFFFF;stroke-width:0.75;stroke-linecap:round;stroke-linejoin:round;stroke-miterlimit:10;" d="
					M162.236,110.735c2.494,2.62,5.014,5.261,8.012,7.285c1.309,0.884,2.699,1.642,4.106,2.359
					c4.616,2.355,9.445,4.293,14.409,5.782"/>
				
					<path style="opacity:0.2;fill:none;stroke:#FFFFFF;stroke-width:0.75;stroke-linecap:round;stroke-linejoin:round;stroke-miterlimit:10;" d="
					M163.254,106.723c6.965,4.243,14.557,7.457,22.452,9.504"/>
				<path style="fill:#263238;" d="M154.39,155.585c0,0,2.816,12.634,9.263,13.782c6.447,1.148,11.567-12.496,11.567-12.496
					s-6.394,7.512-10.415,7.453C160.783,164.264,154.39,155.585,154.39,155.585z"/>
				<circle style="fill:#FFFFFF;stroke:#263238;stroke-miterlimit:10;" cx="146.528" cy="183.305" r="1.498"/>
			</g>
		</g>
	</g>
</g>
</svg>
